<svg id="Слой_1" data-name="Слой 1" xmlns="http://www.w3.org/2000/svg" viewBox="0 0 1921 1081"><defs><style>.cls-1{fill:#1d2228;}.cls-1,.cls-2,.cls-3{stroke:#171d28;stroke-miterlimit:10;}.cls-2{fill:#262c35;}.cls-3{fill:#2d343d;}.cls-4{fill:#47535e;}.cls-5{fill:#373e44;}.cls-6{fill:#38414c;}.cls-7{fill:#566168;}</style></defs><title>меню-чат</title><rect class="cls-1" x="0.5" y="0.5" width="1920" height="1080"/><rect class="cls-2" x="0.5" y="58.26" width="500.5" height="1022.24"/><rect class="cls-3" x="501" y="989.5" width="1419.5" height="91"/><circle class="cls-4" cx="1760" cy="1028.44" r="25.16"/><circle class="cls-5" cx="1751.26" cy="1018.3" r="5.48"/><circle class="cls-5" cx="1767.34" cy="1018.3" r="5.48"/><path class="cls-5" d="M1085.87,855.61a12.58,12.58,0,0,1-12.24-9.67,12.58,12.58,0,1,0,24.48,0A12.59,12.59,0,0,1,1085.87,855.61Z" transform="translate(672.5 182.5)"/><path class="cls-4" d="M1170,815.1a10.18,10.18,0,0,0-10.17,10.17v24.61a10.17,10.17,0,0,0,20.34,0V825.27A10.17,10.17,0,0,0,1170,815.1Z" transform="translate(672.5 182.5)"/><path class="cls-4" d="M1170,863.66a16.77,16.77,0,0,1-16.76-16.76H1149a21,21,0,1,0,42,0h-4.21A16.77,16.77,0,0,1,1170,863.66Z" transform="translate(672.5 182.5)"/><circle class="cls-4" cx="1823.57" cy="1029.4" r="2.08"/><circle class="cls-4" cx="1861.36" cy="1029.4" r="2.08"/><rect class="cls-4" x="1840.41" y="1046.57" width="4.1" height="12.7"/><rect class="cls-2" x="501" y="58.26" width="1419.5" height="99.12"/><rect class="cls-3" x="0.5" y="0.5" width="1920" height="57.76"/><rect class="cls-6" x="37.92" y="87.61" width="51.67" height="6.46"/><rect class="cls-6" x="37.92" y="102.82" width="51.67" height="6.46"/><rect class="cls-6" x="37.92" y="118.02" width="51.67" height="6.46"/><rect class="cls-7" x="1720.25" y="37.29" width="39.75" height="8.73"/><rect class="cls-7" x="1119.44" y="-152.53" width="41.42" height="6.37" transform="translate(900.84 -667.45) rotate(45)"/><rect class="cls-7" x="1119.44" y="-152.53" width="41.42" height="6.37" transform="translate(1112.04 944.96) rotate(-45)"/><path class="cls-7" d="M1186-162.49v26.3h28.72v-26.3Zm23.64,21.65h-18.57v-17h18.57Z" transform="translate(672.5 182.5)"/><polygon class="cls-7" points="1895.48 12.46 1868.84 12.46 1868.84 17.69 1889.77 17.69 1889.77 36.85 1895.48 36.85 1895.48 12.46"/><circle class="cls-7" cx="1737.95" cy="125.79" r="2.84"/><path class="cls-7" d="M1032-91a15.7,15.7,0,0,0-.29,22.19,15.69,15.69,0,0,0,22.19.29,15.69,15.69,0,0,0,.29-22.19A15.7,15.7,0,0,0,1032-91Zm19,19.54a11.58,11.58,0,0,1-16.39-.21,11.58,11.58,0,0,1,.21-16.39,11.58,11.58,0,0,1,16.39.21A11.58,11.58,0,0,1,1051-71.5Z" transform="translate(672.5 182.5)"/><rect class="cls-7" x="1049.7" y="-66.3" width="18.29" height="5.63" transform="translate(2515.88 832.94) rotate(-134.27)"/><circle class="cls-7" cx="1887.24" cy="81.39" r="7.03"/><circle class="cls-7" cx="1887.24" cy="102.7" r="7.03"/><circle class="cls-7" cx="1887.24" cy="124.01" r="7.03"/><rect class="cls-3" x="106" y="81" width="367" height="57" rx="12" ry="12"/><circle class="cls-4" cx="64" cy="211" r="50.5"/><circle class="cls-4" cx="64" cy="334" r="50.5"/><circle class="cls-4" cx="64" cy="457" r="50.5"/><circle class="cls-4" cx="64" cy="580" r="50.5"/><circle class="cls-4" cx="64" cy="703" r="50.5"/><circle class="cls-4" cx="64" cy="826" r="50.5"/><circle class="cls-4" cx="64" cy="949" r="50.5"/><circle class="cls-4" cx="556" cy="937" r="38.5"/><rect class="cls-4" x="-42" y="715" width="152" height="78" rx="21.67" ry="21.67" transform="translate(740.5 1690.5) rotate(-180)"/><path class="cls-4" d="M-6.91,793H-50s8-1.78,8-15.89S-6.91,793-6.91,793Z" transform="translate(672.5 182.5)"/></svg>