<svg id="Слой_1" data-name="Слой 1" xmlns="http://www.w3.org/2000/svg" viewBox="0 0 4573.5 1731.5"><defs><style>.cls-1{fill:#1d2228;}.cls-1,.cls-2,.cls-3{stroke:#171d28;stroke-miterlimit:10;}.cls-2{fill:#262c35;}.cls-3{fill:#2d343d;}.cls-4{fill:#47535e;}.cls-5{fill:#373e44;}.cls-6{fill:#0a002e;}.cls-7{fill:#38414c;}.cls-8{fill:#566168;}</style></defs><title>чат</title><rect class="cls-1" x="2653" y="651" width="1920" height="1080"/><rect class="cls-2" x="2653" y="708.76" width="126.5" height="1022.24"/><rect class="cls-3" x="2779.5" y="1640" width="1793.5" height="91"/><circle class="cls-4" cx="4412.5" cy="1678.94" r="25.16"/><circle class="cls-5" cx="4403.76" cy="1668.8" r="5.48"/><circle class="cls-5" cx="4419.84" cy="1668.8" r="5.48"/><path class="cls-5" d="M1757.87,1037.61a12.58,12.58,0,0,1-12.24-9.67,12.58,12.58,0,1,0,24.48,0A12.59,12.59,0,0,1,1757.87,1037.61Z" transform="translate(2653 651)"/><path class="cls-4" d="M1842,997.1a10.18,10.18,0,0,0-10.17,10.17v24.61a10.17,10.17,0,0,0,20.34,0v-24.61A10.17,10.17,0,0,0,1842,997.1Z" transform="translate(2653 651)"/><path class="cls-4" d="M1842,1045.66a16.77,16.77,0,0,1-16.76-16.76H1821a21,21,0,0,0,42,0h-4.21A16.77,16.77,0,0,1,1842,1045.66Z" transform="translate(2653 651)"/><circle class="cls-4" cx="4476.07" cy="1679.9" r="2.08"/><circle class="cls-4" cx="4513.86" cy="1679.9" r="2.08"/><rect class="cls-4" x="4492.91" y="1697.07" width="4.1" height="12.7"/><rect class="cls-2" x="2779.5" y="708.76" width="1793.5" height="99.12"/><rect class="cls-3" x="2653" y="651" width="1920" height="57.76"/><rect class="cls-6" width="88" height="12"/><rect class="cls-6" x="62" y="202" width="330" height="72"/><rect class="cls-6" x="62" y="376.59" width="330" height="74.34"/><rect class="cls-7" x="2690.42" y="738.11" width="51.67" height="6.46"/><rect class="cls-7" x="2690.42" y="753.32" width="51.67" height="6.46"/><rect class="cls-7" x="2690.42" y="768.52" width="51.67" height="6.46"/><rect class="cls-8" x="4372.75" y="687.79" width="39.75" height="8.73"/><rect class="cls-8" x="1791.44" y="29.47" width="41.42" height="6.37" transform="translate(3206.86 -620.82) rotate(45)"/><rect class="cls-8" x="1791.44" y="29.47" width="41.42" height="6.37" transform="translate(3160.67 1941.95) rotate(-45)"/><path class="cls-8" d="M1858,19.51v26.3h28.72V19.51Zm23.64,21.65h-18.57v-17h18.57Z" transform="translate(2653 651)"/><polygon class="cls-8" points="4547.98 662.96 4521.34 662.96 4521.34 668.19 4542.27 668.19 4542.27 687.35 4547.98 687.35 4547.98 662.96"/><circle class="cls-8" cx="4390.45" cy="776.29" r="2.84"/><path class="cls-8" d="M1704,91a15.69,15.69,0,1,0,22.19.29A15.7,15.7,0,0,0,1704,91Zm19,19.54a11.59,11.59,0,1,1,.21-16.39A11.58,11.58,0,0,1,1723,110.5Z" transform="translate(2653 651)"/><rect class="cls-8" x="1721.7" y="115.7" width="18.29" height="5.63" transform="translate(5507.1 2091.7) rotate(-134.27)"/><circle class="cls-8" cx="4539.74" cy="731.89" r="7.03"/><circle class="cls-8" cx="4539.74" cy="753.2" r="7.03"/><circle class="cls-8" cx="4539.74" cy="774.51" r="7.03"/><circle class="cls-4" cx="2716.25" cy="854.84" r="50.5"/><circle class="cls-4" cx="2716.25" cy="1115.54" r="50.5"/><circle class="cls-4" cx="2716.25" cy="985.19" r="50.5"/><circle class="cls-4" cx="2716.25" cy="1376.24" r="50.5"/><circle class="cls-4" cx="2716.25" cy="1245.89" r="50.5"/><circle class="cls-4" cx="2716.25" cy="1506.59" r="50.5"/><circle class="cls-4" cx="2716.25" cy="1636.94" r="50.5"/><circle class="cls-4" cx="2837.17" cy="1586.44" r="38.5"/><rect class="cls-4" x="251.67" y="896.44" width="152" height="78" rx="21.67" ry="21.67" transform="translate(3308.33 2521.87) rotate(-180)"/><path class="cls-4" d="M286.76,974.44H243.67s8-1.78,8-15.89S286.76,974.44,286.76,974.44Z" transform="translate(2653 651)"/></svg>